<svg width="16" height="16" viewBox="0 0 16 16" fill="none" xmlns="http://www.w3.org/2000/svg">
<path fill-rule="evenodd" clip-rule="evenodd" d="M3.36181 1.73612C3.34256 0.800371 2.71892 0.0879059 1.7058 0.0879059C0.692415 0.0879059 0.0302734 0.800371 0.0302734 1.73612C0.0302734 2.65154 0.673165 3.38461 1.66704 3.38461H1.68629C2.71892 3.38461 3.36181 2.65154 3.36181 1.73612ZM3.36181 15.8989V5.44247H0.129979V15.8989H3.36181ZM8.63436 9.94135V15.8989H5.38603C5.38603 15.8989 5.43275 6.38041 5.38603 5.37937H8.63405L8.61069 6.77788C9.07695 6.04991 9.91667 4.98038 11.8297 4.98038C14.1629 4.98038 15.9121 6.50513 15.9121 9.78193V15.8989H12.6585V9.94135C12.6585 8.50751 11.8537 7.77923 10.5705 7.77923C9.59089 7.77923 9.0075 8.43901 8.75117 9.07638C8.65741 9.30367 8.63436 9.62251 8.63436 9.94135Z" fill="#0078B5"/>
</svg>
